<svg width="720" height="720" xmlns="http://www.w3.org/2000/svg">
 <g id="Layer_1">
  <title>Layer 1</title>
  <g opacity="0.95" stroke-width="10" stroke="null">
   <g stroke="null" fill="#000000" transform="translate(0 1024) scale(0.1 -0.1)">
    <path stroke-dasharray="2,2" stroke="null" d="m3550.50012,9888.49768c-33,-59 -81,-143 -106,-187c-25,-45 -108,-191 -184,-326c-76,-135 -228,-402 -338,-595c-110,-192 -254,-444 -320,-560c-264,-464 -329,-577 -420,-732l-95,-163l201,0l202,0l135,233c74,127 235,405 358,617c124,212 308,531 409,709c102,179 193,338 203,354l18,29l14,-29c15,-29 52,-93 363,-628c105,-181 257,-442 337,-580c80,-137 204,-352 276,-477c73,-124 132,-234 132,-242c0,-9 -33,-65 -74,-124c-40,-59 -123,-181 -185,-271l-111,-164l0,-1174l0,-1173l185,0l185,0l0,423l0,424l143,174c78,96 152,187 165,203c20,25 25,28 36,15c8,-8 222,-327 476,-709c633,-951 777,-1167 817,-1222c19,-27 33,-48 31,-48c-275,-2 -5598,-4 -5598,-3c0,1 102,152 227,335c125,183 238,350 252,371l25,37l818,0l818,0l0,185l0,185l-691,0l-690,0l96,141c53,78 179,262 279,408c100,146 263,385 361,531c98,146 215,319 260,385c45,66 130,192 190,280c60,88 159,234 220,325c61,91 115,171 119,178c6,9 -210,12 -1063,12l-1071,0l0,-190l0,-190l715,0c393,0 715,-2 715,-4c0,-3 -60,-92 -133,-198c-73,-106 -274,-402 -447,-658c-172,-256 -402,-595 -510,-755c-108,-159 -293,-434 -412,-610c-118,-176 -339,-506 -492,-732l-277,-413l3485,0c1918,0 3486,2 3486,4c0,5 -69,110 -450,691c-108,165 -232,354 -275,419c-125,192 -705,1071 -867,1315c-82,123 -147,228 -145,235c3,6 43,56 89,111c47,55 165,197 262,315c98,118 257,311 354,428c98,117 179,217 180,223c3,6 -89,8 -254,7l-258,-3l-116,-141c-63,-78 -162,-200 -220,-271c-58,-72 -226,-282 -375,-466l-270,-335l-3,423l-2,424l193,293c107,161 201,307 209,323c15,30 15,31 -97,225c-207,360 -990,1731 -1206,2112c-118,208 -216,378 -219,377c-3,0 -32,-48 -65,-106z"/>
    <path stroke-dasharray="2,2" stroke="null" d="m3527.50012,8253.49768c-170,-323 -215,-445 -216,-583c-1,-104 18,-156 79,-223c57,-64 134,-97 225,-97c66,0 85,5 142,33c172,85 217,278 121,522c-26,65 -190,398 -236,478l-24,43l-91,-173z"/>
    <path stroke-dasharray="2,2" stroke="null" d="m3435.50012,5720.49768l0,-1315l190,0l190,0l0,1315l0,1315l-190,0l-190,0l0,-1315z"/>
   </g>
  </g>
 </g>

</svg>