<?xml version="1.0" encoding="UTF-8"?>
<svg version="1.1" xmlns="http://www.w3.org/2000/svg" width="800" height="800">
<path d="M0 0 C1.47085838 -0.00307895 1.47085838 -0.00307895 2.97143108 -0.0062201 C6.25308506 -0.01186889 9.53469678 -0.01043547 12.81635475 -0.00901413 C15.19471619 -0.01159899 17.57307719 -0.01461248 19.95143759 -0.01801753 C25.79988369 -0.02523213 31.64832132 -0.02778947 37.49677083 -0.02834659 C44.50482686 -0.02926241 51.51287451 -0.03593643 58.52092691 -0.04269341 C75.45755482 -0.05873391 92.39418181 -0.06465462 109.33081595 -0.06944216 C117.34778777 -0.07178021 125.36475887 -0.0753831 133.38173013 -0.07913754 C160.84084557 -0.09197174 188.29996061 -0.1026907 215.75907898 -0.10614014 C217.48199164 -0.10636177 219.2049043 -0.10658355 220.92781696 -0.10680549 C222.65482031 -0.10702613 224.38182365 -0.10724661 226.10882699 -0.10746694 C229.57331745 -0.10790948 233.0378079 -0.1083566 236.50229836 -0.10880661 C237.36128703 -0.108916 238.22027571 -0.10902539 239.10529435 -0.1091381 C266.94639896 -0.11276723 294.7874775 -0.12868252 322.62857213 -0.15199697 C352.08441812 -0.1766184 381.54024922 -0.19031406 410.99610579 -0.19150805 C414.23253099 -0.1916795 417.46895619 -0.19189492 420.70538139 -0.19214249 C421.50224283 -0.19219826 422.29910427 -0.19225402 423.12011302 -0.19231148 C435.91875035 -0.19345995 448.71736084 -0.2044646 461.51598912 -0.21902954 C474.39201361 -0.23342864 487.26800386 -0.23661232 500.14403419 -0.22858956 C507.11339875 -0.22453852 514.08268134 -0.22518258 521.05203438 -0.23964691 C527.44161544 -0.25242383 533.83103938 -0.25115497 540.22062035 -0.2390562 C542.52282908 -0.23710577 544.82504909 -0.24014711 547.12724201 -0.24890056 C586.32192014 -0.38840135 618.41469123 9.99534142 646.62583351 37.79939651 C660.00173035 51.4519552 669.48334846 68.80979663 674.73130226 87.13142776 C674.92635353 87.80609085 675.1214048 88.48075394 675.32236671 89.17586136 C679.31561468 104.18709168 679.20730379 119.3421335 679.17949867 134.75050735 C679.18252294 137.13404785 679.1864138 139.51758737 679.19109124 141.90112519 C679.20027256 147.73910406 679.20023337 153.5770309 679.19617962 159.41501438 C679.19183514 166.41536472 679.19912805 173.41569129 679.2066709 180.4160372 C679.22187777 194.92705606 679.22361938 209.43805742 679.22114787 223.94908258 C679.21931224 235.15804201 679.22108048 246.36699573 679.22537231 257.57595444 C679.22597473 259.18872283 679.22657592 260.80149123 679.22717592 262.41425963 C679.22808321 264.84481923 679.22899188 267.27537882 679.22990827 269.70593842 C679.23833286 292.29212348 679.24267692 314.87830639 679.23850155 337.4644928 C679.23834517 338.31521664 679.2381888 339.16594048 679.23802768 340.04244383 C679.23722195 344.35383563 679.23637618 348.66522742 679.23551438 352.97661921 C679.23534329 353.83281049 679.2351722 354.68900177 679.23499593 355.57113824 C679.23464927 357.30256322 679.23430075 359.0339882 679.23395035 360.76541318 C679.22859411 387.7015586 679.2365228 414.63767127 679.2549839 441.57381058 C679.27572156 471.86679575 679.28642325 502.15976064 679.28240842 532.45275331 C679.2820131 535.68571488 679.28165155 538.91867645 679.28131104 542.15163803 C679.2812203 542.94762047 679.28112957 543.7436029 679.28103609 544.56370602 C679.27987242 556.55507664 679.28650082 568.54642671 679.29712296 580.53779221 C679.30919819 594.18312257 679.31070721 607.82840781 679.29833279 621.47373888 C679.29230508 628.43099119 679.29092866 635.38816322 679.30333519 642.34540939 C679.31421804 648.7236524 679.31106193 655.101734 679.29707351 661.47996953 C679.29443321 663.77795968 679.29677193 666.07596259 679.30480937 668.3739402 C679.42892082 706.53001688 669.46955515 738.45140309 642.79380226 766.63142776 C619.94244695 788.77114918 589.50875239 800.3252457 557.83760452 800.26285553 C556.36674614 800.26593448 556.36674614 800.26593448 554.86617345 800.26907563 C551.58451947 800.27472442 548.30290774 800.273291 545.02124977 800.27186966 C542.64288834 800.27445451 540.26452733 800.27746801 537.88616693 800.28087306 C532.03772083 800.28808766 526.1892832 800.290645 520.34083369 800.29120212 C513.33277766 800.29211793 506.32473002 800.29879196 499.31667761 800.30554894 C482.3800497 800.32158944 465.44342271 800.32751015 448.50678857 800.33229769 C440.48981676 800.33463574 432.47284565 800.33823863 424.45587439 800.34199307 C396.99675896 800.35482727 369.53764391 800.36554623 342.07852554 800.36899567 C340.35561288 800.3692173 338.63270022 800.36943908 336.90978756 800.36966102 C335.18278421 800.36988166 333.45578087 800.37010214 331.72877753 800.37032247 C328.26428707 800.37076501 324.79979662 800.37121213 321.33530617 800.37166214 C320.47631749 800.37177153 319.61732881 800.37188092 318.73231017 800.37199363 C290.89120557 800.37562276 263.05012702 800.39153805 235.20903239 800.4148525 C205.7531864 800.43947393 176.29735531 800.45316959 146.84149873 800.45436358 C143.60507353 800.45453503 140.36864833 800.45475045 137.13222313 800.45499802 C136.33536169 800.45505379 135.53850025 800.45510955 134.7174915 800.45516701 C121.91885417 800.45631548 109.12024368 800.46732013 96.3216154 800.48188507 C83.44559091 800.49628417 70.56960067 800.49946785 57.69357033 800.49144509 C50.72420578 800.48739405 43.75492319 800.48803811 36.78557014 800.50250244 C30.39598908 800.51527936 24.00656514 800.5140105 17.61698417 800.50191173 C15.31477544 800.4999613 13.01255543 800.50300264 10.71036251 800.51175609 C-27.43469694 800.6475211 -59.68003436 790.72599087 -87.70619774 763.81892776 C-109.74830339 741.10887952 -121.27455254 710.48628141 -121.2126255 679.05023003 C-121.21467814 678.06965777 -121.21673077 677.08908552 -121.21884561 676.07879895 C-121.22449439 672.79714497 -121.22306098 669.51553324 -121.22163963 666.23387527 C-121.22422449 663.85551384 -121.22723799 661.47715284 -121.23064303 659.09879243 C-121.23785763 653.25034633 -121.24041498 647.4019087 -121.24097209 641.55345919 C-121.24188791 634.54540317 -121.24856194 627.53735552 -121.25531891 620.52930311 C-121.27135942 603.5926752 -121.27728012 586.65604822 -121.28206766 569.71941408 C-121.28440571 561.70244226 -121.28800861 553.68547116 -121.29176304 545.6684999 C-121.30459725 518.20938446 -121.3153162 490.75026942 -121.31876564 463.29115105 C-121.31898727 461.56823839 -121.31920905 459.84532572 -121.31943099 458.12241306 C-121.31965163 456.39540972 -121.31987211 454.66840637 -121.32009244 452.94140303 C-121.32053498 449.47691258 -121.3209821 446.01242212 -121.32143211 442.54793167 C-121.3215415 441.68894299 -121.3216509 440.82995432 -121.3217636 439.94493568 C-121.32539273 412.10383107 -121.34130802 384.26275252 -121.36462248 356.42165789 C-121.38924391 326.96581191 -121.40293956 297.50998081 -121.40413356 268.05412424 C-121.404305 264.81769903 -121.40452043 261.58127383 -121.40476799 258.34484863 C-121.40482376 257.5479872 -121.40487953 256.75112576 -121.40493699 255.930117 C-121.40608546 243.13147967 -121.4170901 230.33286919 -121.43165505 217.53424091 C-121.44605415 204.65821642 -121.44923782 191.78222617 -121.44121507 178.90619583 C-121.43716403 171.93683128 -121.43780808 164.96754869 -121.45227242 157.99819565 C-121.46504934 151.60861458 -121.46378047 145.21919064 -121.4516817 138.82960968 C-121.44973127 136.52740094 -121.45277262 134.22518093 -121.46152607 131.92298801 C-121.59909831 93.27016092 -111.500858 60.98884748 -84.08119774 33.13142776 C-83.32709618 32.35283401 -82.57299461 31.57424026 -81.79604149 30.77205276 C-60.29478075 9.97151922 -29.44580165 -0.05800637 0 0 Z M11.91880226 155.13142776 C11.0100132 155.84814651 10.10122414 156.56486526 9.16489601 157.30330276 C-0.61434848 165.14895553 -10.15572014 173.37950265 -18.08119774 183.13142776 C-18.51400047 183.65188675 -18.94680321 184.17234573 -19.39272118 184.7085762 C-54.34623794 226.76020191 -73.32235049 281.2940367 -68.61244774 336.10017776 C-64.41276336 377.6457323 -46.79406032 416.76970773 -18.08119774 447.13142776 C-16.92970469 448.45987632 -15.78367226 449.79308181 -14.64369774 451.13142776 C-7.16687268 459.67391524 1.02531244 467.0981808 9.91880226 474.13142776 C11.62719671 475.50635183 13.33553194 476.88134949 15.04380226 478.25642776 C17.46342542 480.19520371 19.89084502 482.11038181 22.36802101 483.97517776 C28.58850818 488.66367718 34.36899047 493.07240646 35.91880226 501.13142776 C35.74384809 508.99594522 33.72913877 516.44623877 31.73130226 524.00642776 C29.12039648 534.18240575 26.65954496 544.36790009 24.41880226 554.63142776 C24.15172462 555.82364944 23.88464699 557.01587112 23.60947609 558.24422073 C23.37124123 559.35168655 23.13300636 560.45915237 22.88755226 561.60017776 C22.67550148 562.57406448 22.4634507 563.5479512 22.24497414 564.55134964 C21.92187038 567.10715843 22.09949329 568.71346714 22.91880226 571.13142776 C36.96329064 562.47515894 36.96329064 562.47515894 50.92417336 553.6851387 C59.24980354 548.38585789 67.65154649 543.22229107 76.10630226 538.13142776 C77.157855 537.49608109 78.20940773 536.86073441 79.2928257 536.2061348 C96.3319139 525.99197493 108.83083193 523.8908816 128.57895851 526.37361526 C130.1838942 526.56626465 130.1838942 526.56626465 131.82125282 526.76280594 C135.20878208 527.1706924 138.59504274 527.58814365 141.98130226 528.00642776 C146.4302259 528.54793508 150.87959509 529.08573527 155.32895851 529.62361526 C156.4002198 529.753871 157.47148109 529.88412674 158.57520485 530.01832962 C168.01273356 531.15977016 177.46077315 532.17630134 186.91880226 533.13142776 C186.89523659 531.63869339 186.89523659 531.63869339 186.87119484 530.11580276 C186.13584225 478.87536203 194.48859712 431.44746009 226.91880226 390.13142776 C227.66903664 389.16849808 228.41927101 388.20556839 229.19223976 387.21345901 C251.14573196 359.75178015 278.87551174 337.73103351 310.91880226 323.13142776 C311.63439308 322.80191116 312.3499839 322.47239456 313.08725929 322.13289261 C344.68374143 307.74207489 379.34343843 300.86918435 413.91880226 299.13142776 C414.21451428 291.65956551 413.41056277 284.75985911 411.91880226 277.44392776 C411.69877541 276.3617598 411.47874855 275.27959183 411.25205421 274.16463089 C404.83862234 244.25702997 391.25611911 216.7525184 371.91880226 193.13142776 C371.1028257 192.11177933 370.28684914 191.09213089 369.44614601 190.04158401 C358.35032114 176.38240928 345.8072727 163.76933612 331.59848976 153.3623848 C329.92172636 152.13357069 328.26393073 150.88198268 326.60630226 149.62752151 C245.41882054 89.03278297 136.42026231 88.19613014 11.91880226 155.13142776 Z M256.35630226 391.88142776 C233.31546292 418.41202927 217.3379066 450.03551773 212.91880226 485.13142776 C212.80794289 485.98091995 212.69708351 486.83041214 212.58286476 487.70564651 C208.00920746 529.05398073 220.5354569 572.27017378 245.91880226 605.13142776 C246.61562111 606.04384232 246.61562111 606.04384232 247.32651711 606.97468948 C258.28128937 621.23041479 270.58039357 634.23030883 284.91880226 645.13142776 C285.73719582 645.76443802 285.73719582 645.76443802 286.57212257 646.41023636 C328.10245873 678.4390397 376.02978829 690.57547837 427.91880226 689.13142776 C428.72575539 689.11160843 429.53270851 689.09178909 430.36411476 689.07136917 C443.51010042 688.59537292 456.2266479 684.69706092 468.86240578 681.31917191 C469.61044975 681.11921616 470.35849373 680.91926041 471.1292057 680.71324539 C472.54110911 680.33393278 473.95221058 679.95161716 475.36232948 679.56572342 C504.44085339 671.7091991 528.31078375 684.87088826 553.15317726 698.76814651 C555.85337929 700.35249723 555.85337929 700.35249723 558.91880226 700.13142776 C558.58123301 693.38004273 556.90677651 688.35768802 554.19614601 682.19002151 C549.70165334 671.42797944 548.45715519 662.09192679 552.91880226 651.13142776 C557.79302528 642.09665301 564.98269618 634.66295287 572.73130226 628.04939651 C604.36160764 600.31639662 623.73043834 559.92919248 626.91880226 518.13142776 C629.08656127 475.12007009 615.64932903 435.34803656 589.91880226 401.13142776 C589.20337257 400.16978714 588.48794289 399.20814651 587.75083351 398.21736526 C554.80208497 356.02767177 504.10912353 331.77568685 451.91880226 324.13142776 C451.0517466 324.00300491 450.18469093 323.87458206 449.29136086 323.74226761 C377.92722057 313.71960795 305.37332793 339.14159003 256.35630226 391.88142776 Z " fill="#000000" transform="translate(121.08119773864746,-0.13142776489257813)"/>
<path d="M0 0 C6.04192442 5.31272664 10.3222572 11.83657802 11.37890625 19.88671875 C11.70027112 27.98304015 10.24803976 34.76215129 5.26953125 41.2578125 C-0.47052661 47.46761562 -7.54035612 51.21972619 -15.97265625 52.23828125 C-24.36938713 52.53648291 -31.89553944 50.06382299 -38.4375 44.75 C-44.59445814 38.89584308 -47.13578228 31.81932092 -47.375 23.4375 C-47.31402205 15.00512073 -44.99047377 9.43904484 -39.5 3.125 C-38.675 2.42375 -37.85 1.7225 -37 1 C-36.29875 0.29875 -35.5975 -0.4025 -34.875 -1.125 C-23.90556881 -8.27897686 -10.58115481 -7.276801 0 0 Z " fill="#000000" transform="translate(227,248)"/>
<path d="M0 0 C5.55957074 5.77294446 9.00347738 13.27435772 9.39453125 21.33984375 C8.40381167 30.25631994 6.0109711 38.1638927 -1.12109375 43.96875 C-8.60860296 49.25330157 -15.91096362 51.32898866 -25.04296875 50.27734375 C-33.72916615 48.2570165 -40.52776905 44.41426899 -45.609375 36.98828125 C-49.31803245 30.3317166 -51.02713411 23.3661988 -49.5625 15.79296875 C-46.86268469 6.90296916 -41.25588675 -0.14078529 -33.1796875 -4.796875 C-21.79413695 -9.97212525 -9.50212576 -8.01230872 0 0 Z " fill="#000000" transform="translate(414.04296875,249.72265625)"/>
<path d="M0 0 C6.47445853 3.54670642 11.44705117 8.84158794 13.7109375 15.98046875 C15.10640039 23.63300719 14.03552965 30.32187951 9.85546875 36.88671875 C6.15960062 41.71187992 1.9745549 44.48879195 -3.92578125 45.97265625 C-11.5547377 46.87952975 -18.6948077 46.86451706 -24.92578125 41.97265625 C-31.10278816 36.21235219 -33.88747965 31.20381976 -34.36328125 22.72265625 C-34.21239651 15.79138859 -31.87903576 10.22190893 -27.2109375 5.0859375 C-19.64483585 -1.75169922 -9.71918612 -3.41274492 0 0 Z " fill="#000000" transform="translate(457.92578125,429.02734375)"/>
<path d="M0 0 C5.88220048 3.50190325 10.57472749 8.96233861 12.625 15.5 C13.46137039 23.0954102 13.50029273 30.30742762 8.625 36.5 C4.01537694 41.35020881 -0.34654472 45.01613526 -7.171875 45.8359375 C-14.91512516 45.93836144 -21.14949404 45.16025187 -27.15625 39.95703125 C-31.98931122 34.78044362 -34.45826111 29.07466816 -34.75 22 C-34.45594192 14.86909153 -31.96420451 9.24248749 -27.0859375 4.04296875 C-19.75707891 -2.56639003 -9.12422408 -3.97631555 0 0 Z " fill="#000000" transform="translate(608.375,429.5)"/>
</svg>
